<svg height="512pt" viewBox="-27 0 512 512" width="512pt" xmlns="http://www.w3.org/2000/svg" xmlns:xlink="http://www.w3.org/1999/xlink"><linearGradient id="a" gradientUnits="userSpaceOnUse" x1="229" x2="229" y1="0" y2="512"><stop offset="0" stop-color="#2af598"/><stop offset="1" stop-color="#009efd"/></linearGradient><path d="m40 452v-392c0-11.027344 8.972656-20 20-20h174.890625v71.109375c0 33.085937 26.914063 60 60 60h71v120.890625h40v-149.144531l-142.132813-142.855469h-203.757812c-33.085938 0-60 26.914062-60 60v392c0 33.085938 26.914062 60 60 60h120v-40h-120c-11.027344 0-20-8.972656-20-20zm234.890625-340.890625v-43.210937l62.886719 63.210937h-42.886719c-11.03125 0-20-8.96875-20-20zm-54.890625 220.890625v180h238v-180zm165.730469 40-46.230469 34.386719-46.230469-34.386719zm-125.730469 100v-74.894531l79.5 59.132812 78.5-58.386719v74.148438zm0 0" fill="url(#a)"/></svg>